<?xml version="1.0" encoding="UTF-8"?>
<svg id="logos" xmlns="http://www.w3.org/2000/svg" viewBox="0 0 1020.47 411.02">
  <defs>
    <style>
      .cls-1 {
        fill: #fff;
        stroke-width: 0px;
      }
    </style>
  </defs>
  <g>
    <path class="cls-1" d="m890.87,135.99c-5.14-6.45-12.95-9.67-23.43-9.67s-18.28,3.22-23.42,9.67c-5.15,6.44-7.72,14.06-7.72,22.85s2.57,16.58,7.72,22.94c5.14,6.34,12.95,9.52,23.42,9.52s18.28-3.18,23.43-9.52c5.15-6.36,7.72-14,7.72-22.94s-2.57-16.4-7.72-22.85Zm-12.74,36.97c-2.5,3.31-6.07,4.97-10.74,4.97s-8.25-1.66-10.76-4.97c-2.52-3.31-3.77-8.02-3.77-14.13s1.25-10.8,3.77-14.1c2.52-3.29,6.11-4.94,10.76-4.94s8.24,1.65,10.74,4.94c2.49,3.3,3.74,8,3.74,14.1s-1.25,10.82-3.74,14.13Z"/>
    <path class="cls-1" d="m759.41,130.6c-5.21-2.64-11.18-3.97-17.9-3.97-10.33,0-17.62,2.69-21.86,8.07-2.67,3.44-4.17,7.84-4.51,13.19h15.43c.38-2.37,1.13-4.23,2.27-5.61,1.59-1.87,4.3-2.8,8.12-2.8,3.41,0,6,.47,7.77,1.43,1.75.95,2.64,2.68,2.64,5.18,0,2.06-1.15,3.56-3.44,4.54-1.28.56-3.41,1.03-6.39,1.4l-5.47.67c-6.21.79-10.93,2.1-14.12,3.93-5.84,3.37-8.76,8.8-8.76,16.32,0,5.79,1.8,10.27,5.44,13.43,3.62,3.16,8.23,4.48,13.79,4.74,34.89,1.56,34.5-18.38,34.82-22.53v-22.96c0-7.36-2.61-12.38-7.82-15.04Zm-8.1,34.84c-.11,5.34-1.64,9.03-4.58,11.05-2.94,2.02-6.16,3.03-9.64,3.03-2.21,0-4.08-.62-5.62-1.83-1.54-1.22-2.3-3.19-2.3-5.92,0-3.06,1.26-5.32,3.77-6.78,1.49-.86,3.94-1.59,7.35-2.17l3.64-.68c1.81-.35,3.24-.72,4.28-1.11,1.05-.38,2.07-.89,3.09-1.53v5.95Z"/>
    <path class="cls-1" d="m679.85,140.3c3.99,0,6.92,1.23,8.82,3.7,1.29,1.82,2.1,3.87,2.42,6.15h17.21c-.94-8.69-3.98-14.75-9.11-18.18-5.15-3.42-11.74-5.14-19.8-5.14-9.48,0-16.92,2.91-22.3,8.72-5.39,5.82-8.09,13.95-8.09,24.41,0,9.26,2.44,16.8,7.32,22.62,4.88,5.81,12.49,8.72,22.83,8.72s18.17-3.49,23.43-10.46c3.3-4.32,5.15-8.9,5.54-13.75h-17.15c-.35,3.21-1.35,5.82-3.01,7.83-1.65,2-4.44,3.01-8.39,3.01-5.55,0-9.34-2.53-11.34-7.61-1.1-2.71-1.66-6.29-1.66-10.76s.56-8.43,1.66-11.27c2.09-5.32,5.97-7.99,11.63-7.99Z"/>
    <path class="cls-1" d="m643.82,143.04c.78.04,1.67.11,2.69.23v-16.32c-.71-.05-1.18-.07-1.38-.09-.21-.02-.46-.03-.76-.03-35.36,0-33.27,31.3-33.27,31.3v31.8h16.04v-29.82c0-4.89.62-8.5,1.84-10.86,2.2-4.17,6.51-6.27,12.92-6.27.48,0,1.12.03,1.9.06Z"/>
    <path class="cls-1" d="m552.5,183.95c6.19,5,13.36,7.51,21.46,7.51,9.83,0,17.47-2.97,22.93-8.9,2.95-3.11,4.79-6.2,5.57-9.25h-17.02c-.67.96-1.39,1.79-2.19,2.43-2.27,1.86-5.34,2.43-8.97,2.43-3.43,0-6.11-.52-8.54-2.05-4-2.46-6.26-6.62-6.5-12.74h44.4c.06-5.27-.11-9.3-.53-12.1-.73-4.77-2.36-8.98-4.85-12.6-2.77-4.11-6.29-7.11-10.54-9.02-4.25-1.89-9.02-2.84-14.32-2.84-8.94,0-16.2,2.82-21.8,8.44-5.6,5.64-8.4,13.73-8.4,24.29,0,11.27,3.1,19.41,9.31,24.4Zm11.38-40.52c2.26-2.32,5.42-3.48,9.52-3.48,3.76,0,6.91,1.09,9.46,3.29,2.53,2.19,3.95,5.4,4.24,9.62h-27.45c.57-3.97,2-7.11,4.24-9.43Z"/>
    <path class="cls-1" d="m522.09,153.02v36.9h14.65v-36.55c0-15.71-9.43-26.75-25.44-26.75-7.45,0-13.89,3.26-18.21,8.49-4.11-5.23-10.44-8.49-18.23-8.49-15.67,0-25.78,11.51-25.78,26.75v36.55h14.66v-36.9c0-6.74,4.55-11.39,11.11-11.39,9.66,0,10.67,8.02,10.67,11.39v36.9h14.66v-36.9c0-6.74,4.67-11.39,11.11-11.39,9.67,0,10.78,8.02,10.78,11.39Z"/>
    <path class="cls-1" d="m815.37,118.81l-.02,17.19c-1.79-2.88-4.11-5.12-6.98-6.74-2.86-1.62-6.14-2.43-9.84-2.43-8.02,0-14.41,2.99-19.2,8.94-4.8,5.97-7.19,14.57-7.19,24.97,0,9.03,2.43,16.42,7.3,22.18,4.87,5.75,14.4,8.28,22.87,8.28,29.54,0,29.2-25.33,29.2-25.33v-58.3s-16.14-1.73-16.14,11.26Zm-3.09,54.29c-2.34,3.36-5.78,5.03-10.29,5.03s-7.88-1.69-10.09-5.06c-2.22-3.38-3.32-8.29-3.32-13.92,0-5.22,1.08-9.59,3.26-13.11,2.18-3.52,5.6-5.29,10.26-5.29,3.06,0,5.74.97,8.06,2.9,3.76,3.21,5.65,8.97,5.65,16.42,0,5.32-1.18,9.67-3.53,13.03Z"/>
    <path class="cls-1" d="m483,214.45c-13.21-.62-19.89,2.53-24.24,5.85-6.01,4.58-9.67,11.37-9.67,22.21v55.74h7.77c2.09,0,4.16-.72,5.69-2.13,1.72-1.58,2.57-3.51,2.57-5.78v-20.83c1.89,3.26,4.39,5.66,7.54,7.22,2.98,1.39,6.44,2.09,10.37,2.09,7.39,0,13.45-2.94,18.16-8.84,4.71-6.06,7.07-13.96,7.07-23.73s-2.23-16.73-7.58-23.25c-4.32-5.26-10.89-8.23-17.7-8.54Zm5.47,45.75c-2.36,3.27-5.58,4.89-9.67,4.89-4.4,0-7.79-1.62-10.14-4.89-2.36-2.95-3.54-7.35-3.54-13.26,0-6.35,1.1-11.01,3.29-13.96,2.37-3.25,5.67-4.89,9.91-4.89s7.78,1.64,10.14,4.89c2.37,3.26,3.54,7.91,3.54,13.96,0,5.6-1.18,10.01-3.54,13.26Z"/>
    <path class="cls-1" d="m620.81,220.2c-5.45-4.13-11.02-6.29-20.61-6.04-9.72.26-16.8,2.98-21.2,8.95-4.4,5.96-6.59,13.76-6.59,23.36,0,8.21,1.66,14.84,4.97,19.9,3.32,5.03,7.3,8.48,11.94,10.33,4.62,1.87,9.29,2.25,14,1.18,4.71-1.09,8.46-3.79,11.23-8.13v3.94c-.32,4.97-1.51,8.68-3.58,11.17-2.1,2.47-4.41,3.98-6.96,4.53-2.53.53-5.09.24-7.63-.93-2.56-1.16-4.44-2.83-5.68-4.99h-16.91c4.38,13.16,12.24,18.97,26.4,20,22.85,1.65,30.13-17.7,30.1-28.13v-32.79c0-10.84-3.53-17.79-9.5-22.32Zm-6.72,32.21c-.62,3.63-1.62,6.32-3.01,8.01-2.93,4.03-7.49,5.45-13.66,4.31-6.18-1.17-9.27-7.1-9.27-17.79,0-4.97.92-9.38,2.79-13.26,1.86-3.86,5.4-5.81,10.65-5.81,3.86,0,6.8,1.4,8.8,4.18,2.01,2.79,3.29,5.96,3.83,9.54.54,3.56.49,7.17-.12,10.81Z"/>
    <path class="cls-1" d="m558.69,218.57c-5.22-2.63-11.19-3.97-17.9-3.97-10.33,0-17.61,2.69-21.85,8.07-2.66,3.44-4.17,7.83-4.51,13.18h15.44c.38-2.36,1.13-4.23,2.27-5.61,1.59-1.87,4.3-2.81,8.12-2.81,3.43,0,6.01.47,7.77,1.43,1.75.95,2.64,2.68,2.64,5.19,0,2.06-1.15,3.57-3.44,4.54-1.28.56-3.41,1.02-6.39,1.4l-5.46.66c-6.21.79-10.94,2.1-14.12,3.93-5.85,3.37-8.76,8.8-8.76,16.31,0,5.79,1.8,10.27,5.44,13.43,3.62,3.17,8.23,4.49,13.8,4.75,34.87,1.56,34.48-18.39,34.8-22.53v-22.96c0-7.36-2.6-12.37-7.81-15.03Zm-8.11,34.83c-.1,5.35-1.63,9.03-4.57,11.05-2.94,2.02-6.16,3.03-9.64,3.03-2.21,0-4.08-.62-5.62-1.83-1.54-1.21-2.31-3.19-2.31-5.92,0-3.06,1.26-5.32,3.78-6.78,1.5-.86,3.94-1.59,7.34-2.17l3.65-.68c1.82-.35,3.24-.71,4.27-1.1,1.06-.38,2.08-.89,3.1-1.54v5.95Z"/>
    <path class="cls-1" d="m667.55,213.97c-10.46,0-18.27,3.22-23.41,9.67-5.15,6.44-7.72,14.05-7.72,22.83s2.57,16.58,7.72,22.93c5.14,6.33,12.95,9.51,23.41,9.51s18.28-3.18,23.43-9.51c5.14-6.36,7.7-14,7.7-22.93s-2.57-16.39-7.7-22.83c-5.15-6.45-12.96-9.67-23.43-9.67Zm10.68,46.62c-2.49,3.31-6.06,4.98-10.72,4.98s-8.25-1.66-10.76-4.98c-2.53-3.3-3.78-8.01-3.78-14.11s1.25-10.8,3.78-14.09c2.51-3.3,6.1-4.94,10.76-4.94s8.23,1.65,10.72,4.94c2.5,3.29,3.74,7.99,3.74,14.09s-1.25,10.81-3.74,14.11Z"/>
  </g>
  <g>
    <path class="cls-1" d="m405.29,198.94c-.43-51.06-64.22-92.16-142.48-91.5-78.26.65-141.35,42.81-140.92,93.87.01,1.32.02,4.97.03,5.43.45,54.16,56.27,97.58,142.52,96.86,86.78-.72,141.35-45.05,140.9-99.22l-.05-5.43Zm-140.95,88.3c-75.25.63-136.57-37.89-136.97-86.03-.02-1.94.1-3.86.28-5.77l.87-5.89c.13-.63.33-1.25.48-1.87,3.1.9,5.34,1.51,6.44,1.76,34.62,7.89,48.38,16.09,52.46,19.03,2.67-2.39,6.18-3.74,9.74-3.74h.01c4.15,0,8.05,1.77,10.83,4.87,4.35-2.8,9.64-3.4,15.01-1.53,3.51,1.2,6.29,3.44,8.05,6.5,3.58-1.15,7.64-.88,11.69.87,7.81,3.35,8.93,10.57,8.78,15.15,9.27.19,16.75,7.8,16.73,17.12,0,2.22-.45,4.45-1.29,6.49,2.57,1.3,6.97,3.1,10.85,2.63,3.69-.46,4.79-1.65,5.05-2,.03-.03.05-.07.07-.1l-10.45-11.54c-1.82-1.71-2.29-3.48-1.19-4.68.46-.51,1.1-.8,1.79-.8,1.21,0,2.25.88,3.01,1.52,5.67,4.72,12.45,11.73,12.52,11.8l.17.18c.15.17.59.53,2.02.79.48.09,1.02.14,1.57.14,1.06,0,3.73-.17,5.68-1.77.35-.31.74-.67,1.1-1.06l.4-.52c1.78-2.27.09-4.58-.26-5.02l-12.72-14.3s-.5-.47-.93-1.05c-1.39-1.84-.76-3.06-.26-3.62.48-.5,1.09-.76,1.75-.76,1.14,0,2.19.75,3.16,1.56,3.41,2.85,8.03,7.4,12.5,11.8l2.82,2.78c.34.22,2.03,1.27,4.38,1.27,1.88,0,3.8-.64,5.71-1.91,2.65-1.73,3.89-3.85,3.77-6.47-.2-2.29-2.1-4.11-2.12-4.13l-17.49-17.6c-1.8-1.54-2.34-3.4-1.3-4.68.44-.56,1.18-.83,1.83-.86,1.13,0,2.13.75,3.13,1.59,3.11,2.6,9.72,8.52,19.64,17.58.57.52.92.84.98.89,0,0,1.81,1.25,4.49,1.26,1.77,0,3.54-.56,5.27-1.65,1.9-1.21,2.99-2.94,3.08-4.87.17-3.52-2.28-5.7-2.31-5.72-4.66-4.08-44.57-38.99-53.86-45.97-5.37-4.04-8.35-5.1-11.42-5.5-.33-.05-.67-.05-1.03-.06-1.24,0-2.82.22-4.12.56-4.73,1.29-10.95,5.72-15.34,9.2-5.71,4.53-11.06,8.77-16.27,9.94-1.64.37-3.43.59-5.28.55-4.92-.01-10.24-1.37-13.23-3.39-1.67-1.12-2.87-2.47-3.47-3.89-1.55-3.61.76-6.51,1.84-7.59l12.01-12.96c.08-.08.17-.17.25-.25-1.72.41-3.43.88-5.24,1.39-4.36,1.21-8.77,2.44-13.25,2.44h-.02c-1.5,0-2.98-.13-4.41-.24l-1.44-.11c-6.29-.41-26.3-5.48-43.93-12.57.02-.02.04-.04.06-.05l4.87-3.74c24.79-17.93,60.83-29.38,101.04-29.72,41.54-.35,78.81,11.25,103.96,29.79l4.83,3.76c.32.27.61.55.93.82l-1.58.73c-13.93,6.38-26.95,9.48-39.78,9.48h-.06c-12.33-.02-24.6-2.98-36.46-8.78-1.35-.63-13.66-6.18-26.09-6.2-.32,0-.65,0-.97.02-19.8.44-28.44,9.05-37.58,18.17l-11.82,12.72c-.24.31-.34.5-.39.6,1.36,1.54,4.91,2.61,8.76,2.62,1.64,0,3.29-.18,4.9-.54,3.61-.8,8.55-4.72,13.33-8.51l.33-.26c5.31-4.21,10.79-8.56,16.39-10.33,2.47-.79,4.85-1.19,7.07-1.19h.03c2.41,0,4.28.47,5.64.88,2.96.88,6.32,2.84,11.23,6.54,8.03,6.03,36.16,30.47,52.52,44.78,9.1-4.02,32.18-13.49,60.56-19.78,0,0,0-.04.02-.11.04.21.11.41.15.62l.84,5.87c.12,1.44.2,2.89.21,4.35.4,48.14-60.27,87.67-135.53,88.3Z"/>
    <path class="cls-1" d="m251.8,236.93h0c-1.56,0-3.23.57-4.34.95-.76.26-1.21.42-1.58.42h-.23l-.32-.16c-.24-.16-.35-.38-.41-.65-.33-.47-.23-1.22.35-2.61.03-.07,1.76-4.92.26-9.1-.73-1.82-2.09-3.5-4.53-4.55-1.65-.72-3.26-1.07-4.77-1.07-3.3,0-5.4,1.68-6.37,2.69-.24.24-.56.52-1,.52-.13,0-.71-.08-.94-.78-.11-.17-.21-.39-.24-.72-.05-.7-.2-1.76-.6-2.89-.76-1.93-2.29-4.01-5.39-4.96-1.27-.39-2.53-.6-3.75-.6-6.43,0-9.92,5.3-10.07,5.53l-1.27,1.98-.05-.37s-.05.04-.07.04c-.26-.07-.3-2.33-.3-2.33-.06-.51-.18-1-.32-1.47-1.2-3.39-4.4-5.78-8.08-5.78-4.77,0-8.66,3.88-8.66,8.67,0,1.09.22,2.12.59,3.08,1.33,3.07,4.38,5.23,7.93,5.24,2.23,0,3.98-1.36,5.98-2.41.54-.28,1.11-.32,1.27-.09.15.22.21.46.22.73.11.22.17.46.13.77-.2,1.18-.47,3.74.35,6.41.88,2.56,2.8,5.16,6.77,6.71,1,.39,2.02.59,3,.59,1.78,0,3.54-.62,5.37-1.9.44-.31.78-.47,1.1-.44.21.02.55.09.78.35.18.2.24.43.26.67.13.32.16.68.1,1.03-.09.66-.14,1.68.17,2.83.61,1.84,2.14,3.95,5.84,5.45,1.27.52,2.48.78,3.59.78,2.45,0,4.13-1.24,5.45-2.46.47-.43.88-.71,1.34-.71.69,0,.97.5,1.09,1,.22.43.26.97.27,1.25.05,1.36.37,2.64.86,3.82,1.75,3.78,5.59,6.38,10.06,6.39,6.12,0,11.11-4.97,11.13-11.08,0-1.44-.3-2.81-.81-4.08-1.73-3.89-5.62-6.65-10.16-6.7Z"/>
  </g>
</svg>